<mxfile host="65bd71144e">
    <diagram id="pSShWzcSAgIpa7YixIon" name="PÃ¡gina-1">
        <mxGraphModel dx="1026" dy="1725" grid="1" gridSize="10" guides="1" tooltips="1" connect="1" arrows="1" fold="1" page="1" pageScale="1" pageWidth="827" pageHeight="1169" math="0" shadow="0">
            <root>
                <mxCell id="0"/>
                <mxCell id="1" parent="0"/>
                <mxCell id="9" value="" style="group" vertex="1" connectable="0" parent="1">
                    <mxGeometry x="40" y="-40" width="200" height="200" as="geometry"/>
                </mxCell>
                <mxCell id="2" value="" style="rounded=0;whiteSpace=wrap;html=1;" vertex="1" parent="9">
                    <mxGeometry width="200" height="200" as="geometry"/>
                </mxCell>
                <mxCell id="4" value="" style="endArrow=none;html=1;fontSize=26;entryX=1;entryY=0.25;entryDx=0;entryDy=0;exitX=0;exitY=0.25;exitDx=0;exitDy=0;" edge="1" parent="9" source="2" target="2">
                    <mxGeometry width="50" height="50" relative="1" as="geometry">
                        <mxPoint x="70" y="140" as="sourcePoint"/>
                        <mxPoint x="120" y="90" as="targetPoint"/>
                    </mxGeometry>
                </mxCell>
                <mxCell id="5" value="&lt;font style=&quot;font-size: 16px;&quot;&gt;- id : int&lt;/font&gt;" style="text;html=1;align=center;verticalAlign=middle;resizable=0;points=[];autosize=1;strokeColor=none;fillColor=none;fontSize=16;" vertex="1" parent="9">
                    <mxGeometry y="50" width="80" height="30" as="geometry"/>
                </mxCell>
                <mxCell id="6" value="- name : String" style="text;html=1;align=center;verticalAlign=middle;resizable=0;points=[];autosize=1;strokeColor=none;fillColor=none;fontSize=16;" vertex="1" parent="9">
                    <mxGeometry y="80" width="130" height="30" as="geometry"/>
                </mxCell>
                <mxCell id="8" value="" style="endArrow=none;html=1;fontSize=16;entryX=1;entryY=0.75;entryDx=0;entryDy=0;exitX=0;exitY=0.75;exitDx=0;exitDy=0;" edge="1" parent="9" source="2" target="2">
                    <mxGeometry width="50" height="50" relative="1" as="geometry">
                        <mxPoint x="60" y="200" as="sourcePoint"/>
                        <mxPoint x="110" y="150" as="targetPoint"/>
                    </mxGeometry>
                </mxCell>
                <mxCell id="18" value="Category" style="text;html=1;align=center;verticalAlign=middle;resizable=0;points=[];autosize=1;strokeColor=none;fillColor=none;fontSize=26;fontColor=#FFFFFF;" vertex="1" parent="9">
                    <mxGeometry x="35" width="130" height="40" as="geometry"/>
                </mxCell>
                <mxCell id="21" value="- products : String [ ]&amp;nbsp;" style="text;html=1;align=center;verticalAlign=middle;resizable=0;points=[];autosize=1;strokeColor=none;fillColor=none;fontSize=16;fontColor=#FFFFFF;" vertex="1" parent="9">
                    <mxGeometry y="110" width="170" height="30" as="geometry"/>
                </mxCell>
                <mxCell id="25" value="" style="group" vertex="1" connectable="0" parent="1">
                    <mxGeometry x="480" width="200" height="200" as="geometry"/>
                </mxCell>
                <mxCell id="26" value="" style="rounded=0;whiteSpace=wrap;html=1;" vertex="1" parent="25">
                    <mxGeometry width="200" height="200" as="geometry"/>
                </mxCell>
                <mxCell id="27" value="" style="endArrow=none;html=1;fontSize=26;entryX=1;entryY=0.25;entryDx=0;entryDy=0;exitX=0;exitY=0.25;exitDx=0;exitDy=0;" edge="1" parent="25" source="26" target="26">
                    <mxGeometry width="50" height="50" relative="1" as="geometry">
                        <mxPoint x="70" y="140.00000000000003" as="sourcePoint"/>
                        <mxPoint x="120" y="90" as="targetPoint"/>
                    </mxGeometry>
                </mxCell>
                <mxCell id="28" value="&lt;font style=&quot;font-size: 16px;&quot;&gt;- id : int&lt;/font&gt;" style="text;html=1;align=center;verticalAlign=middle;resizable=0;points=[];autosize=1;strokeColor=none;fillColor=none;fontSize=16;" vertex="1" parent="25">
                    <mxGeometry y="50" width="80" height="30" as="geometry"/>
                </mxCell>
                <mxCell id="29" value="- name : String" style="text;html=1;align=center;verticalAlign=middle;resizable=0;points=[];autosize=1;strokeColor=none;fillColor=none;fontSize=16;" vertex="1" parent="25">
                    <mxGeometry y="71.42857142857144" width="130" height="30" as="geometry"/>
                </mxCell>
                <mxCell id="31" value="&lt;font color=&quot;#e1efff&quot;&gt;product&lt;/font&gt;" style="text;html=1;align=center;verticalAlign=middle;resizable=0;points=[];autosize=1;strokeColor=none;fillColor=none;fontSize=26;fontColor=#FFFFFF;" vertex="1" parent="25">
                    <mxGeometry x="45" width="110" height="40" as="geometry"/>
                </mxCell>
                <mxCell id="32" value="- price : int" style="text;html=1;align=center;verticalAlign=middle;resizable=0;points=[];autosize=1;strokeColor=none;fillColor=none;fontSize=16;fontColor=#FFFFFF;" vertex="1" parent="25">
                    <mxGeometry y="92.85714285714286" width="100" height="30" as="geometry"/>
                </mxCell>
                <mxCell id="33" value="- categoty : String" style="text;html=1;align=center;verticalAlign=middle;resizable=0;points=[];autosize=1;strokeColor=none;fillColor=none;fontSize=16;fontColor=#FFFFFF;" vertex="1" parent="25">
                    <mxGeometry y="114.28757763975156" width="150" height="30" as="geometry"/>
                </mxCell>
                <mxCell id="34" value="" style="endArrow=none;html=1;fontSize=16;fontColor=#FFFFFF;" edge="1" parent="25">
                    <mxGeometry width="50" height="50" relative="1" as="geometry">
                        <mxPoint x="100" y="226.08695652173915" as="sourcePoint"/>
                        <mxPoint x="100" y="226.08695652173915" as="targetPoint"/>
                    </mxGeometry>
                </mxCell>
                <mxCell id="35" value="" style="endArrow=none;html=1;fontSize=16;fontColor=#FFFFFF;exitX=0;exitY=0.75;exitDx=0;exitDy=0;entryX=1;entryY=0.75;entryDx=0;entryDy=0;" edge="1" parent="25" source="26" target="26">
                    <mxGeometry width="50" height="50" relative="1" as="geometry">
                        <mxPoint x="80" y="192.85714285714286" as="sourcePoint"/>
                        <mxPoint x="160" y="150" as="targetPoint"/>
                    </mxGeometry>
                </mxCell>
                <mxCell id="43" value="" style="group" vertex="1" connectable="0" parent="1">
                    <mxGeometry x="40" y="280" width="320" height="160" as="geometry"/>
                </mxCell>
                <mxCell id="36" value="" style="rounded=0;whiteSpace=wrap;html=1;" vertex="1" parent="43">
                    <mxGeometry width="320" height="159.99714290816237" as="geometry"/>
                </mxCell>
                <mxCell id="37" value="CategoryService" style="text;html=1;align=center;verticalAlign=middle;resizable=0;points=[];autosize=1;strokeColor=none;fillColor=none;fontSize=26;fontColor=#FFFFFF;" vertex="1" parent="43">
                    <mxGeometry x="34.28190476190476" width="220" height="40" as="geometry"/>
                </mxCell>
                <mxCell id="39" value="" style="endArrow=none;html=1;fontSize=26;fontColor=#FFFFFF;entryX=1;entryY=0.25;entryDx=0;entryDy=0;exitX=0;exitY=0.25;exitDx=0;exitDy=0;" edge="1" parent="43" source="36" target="36">
                    <mxGeometry width="50" height="50" relative="1" as="geometry">
                        <mxPoint x="93.33333333333333" y="87.9984285994893" as="sourcePoint"/>
                        <mxPoint x="160" y="47.999142872448715" as="targetPoint"/>
                    </mxGeometry>
                </mxCell>
                <mxCell id="40" value="- categories : String [ ]&amp;nbsp;" style="text;html=1;align=center;verticalAlign=middle;resizable=0;points=[];autosize=1;strokeColor=none;fillColor=none;fontSize=16;fontColor=#FFFFFF;" vertex="1" parent="43">
                    <mxGeometry y="39.99928572704059" width="180" height="30" as="geometry"/>
                </mxCell>
                <mxCell id="41" value="- nextCategoryId : int" style="text;html=1;align=center;verticalAlign=middle;resizable=0;points=[];autosize=1;strokeColor=none;fillColor=none;fontSize=16;fontColor=#FFFFFF;" vertex="1" parent="43">
                    <mxGeometry y="69.99875002232103" width="170" height="30" as="geometry"/>
                </mxCell>
                <mxCell id="42" value="" style="endArrow=none;html=1;fontSize=16;fontColor=#FFFFFF;entryX=1;entryY=0.75;entryDx=0;entryDy=0;exitX=0;exitY=0.75;exitDx=0;exitDy=0;" edge="1" parent="43" source="36" target="36">
                    <mxGeometry width="50" height="50" relative="1" as="geometry">
                        <mxPoint x="133.33333333333334" y="143.99742861734615" as="sourcePoint"/>
                        <mxPoint x="200" y="103.99814289030554" as="targetPoint"/>
                    </mxGeometry>
                </mxCell>
                <mxCell id="45" value="+ addCategory(name: String) : boolean" style="text;html=1;align=center;verticalAlign=middle;resizable=0;points=[];autosize=1;strokeColor=none;fillColor=none;fontSize=16;fontColor=#FFFFFF;" vertex="1" parent="43">
                    <mxGeometry x="-0.0014285714285691142" y="120.00053570471957" width="300" height="30" as="geometry"/>
                </mxCell>
                <mxCell id="48" value="" style="group" vertex="1" connectable="0" parent="1">
                    <mxGeometry x="520" y="280" width="520" height="160" as="geometry"/>
                </mxCell>
                <mxCell id="49" value="" style="rounded=0;whiteSpace=wrap;html=1;" vertex="1" parent="48">
                    <mxGeometry width="520" height="160" as="geometry"/>
                </mxCell>
                <mxCell id="50" value="ProductService" style="text;html=1;align=center;verticalAlign=middle;resizable=0;points=[];autosize=1;strokeColor=none;fillColor=none;fontSize=26;fontColor=#FFFFFF;" vertex="1" parent="48">
                    <mxGeometry x="169.99836520947176" width="200" height="40" as="geometry"/>
                </mxCell>
                <mxCell id="51" value="" style="endArrow=none;html=1;fontSize=26;fontColor=#FFFFFF;entryX=1;entryY=0.25;entryDx=0;entryDy=0;exitX=0;exitY=0.25;exitDx=0;exitDy=0;" edge="1" parent="48" source="49" target="49">
                    <mxGeometry width="50" height="50" relative="1" as="geometry">
                        <mxPoint x="116.02914389799636" y="87.9984285994893" as="sourcePoint"/>
                        <mxPoint x="198.9071038251366" y="47.999142872448715" as="targetPoint"/>
                    </mxGeometry>
                </mxCell>
                <mxCell id="52" value="- products : String [ ]&amp;nbsp;" style="text;html=1;align=center;verticalAlign=middle;resizable=0;points=[];autosize=1;strokeColor=none;fillColor=none;fontSize=16;fontColor=#FFFFFF;" vertex="1" parent="48">
                    <mxGeometry y="39.99928572704059" width="170" height="30" as="geometry"/>
                </mxCell>
                <mxCell id="53" value="-&amp;nbsp; nextProductId : int&amp;nbsp;" style="text;html=1;align=center;verticalAlign=middle;resizable=0;points=[];autosize=1;strokeColor=none;fillColor=none;fontSize=16;fontColor=#FFFFFF;" vertex="1" parent="48">
                    <mxGeometry y="69.99875002232103" width="170" height="30" as="geometry"/>
                </mxCell>
                <mxCell id="54" value="" style="endArrow=none;html=1;fontSize=16;fontColor=#FFFFFF;entryX=1;entryY=0.75;entryDx=0;entryDy=0;exitX=0;exitY=0.75;exitDx=0;exitDy=0;" edge="1" parent="48" source="49" target="49">
                    <mxGeometry width="50" height="50" relative="1" as="geometry">
                        <mxPoint x="165.75591985428048" y="143.99742861734615" as="sourcePoint"/>
                        <mxPoint x="248.63387978142077" y="103.99814289030554" as="targetPoint"/>
                    </mxGeometry>
                </mxCell>
                <mxCell id="55" value="+ addProducts(name : String, price :&amp;nbsp; int , category : String) : boolean" style="text;html=1;align=center;verticalAlign=middle;resizable=0;points=[];autosize=1;strokeColor=none;fillColor=none;fontSize=16;fontColor=#FFFFFF;" vertex="1" parent="48">
                    <mxGeometry x="0.0023679417121975632" y="120.00071427295941" width="510" height="30" as="geometry"/>
                </mxCell>
                <mxCell id="69" style="edgeStyle=none;html=1;exitX=1;exitY=0.5;exitDx=0;exitDy=0;entryX=-0.004;entryY=-0.035;entryDx=0;entryDy=0;entryPerimeter=0;strokeWidth=1;fontSize=16;fontColor=#FFFFFF;endArrow=diamondThin;endFill=0;endSize=20;" edge="1" parent="1" source="2" target="32">
                    <mxGeometry relative="1" as="geometry"/>
                </mxCell>
                <mxCell id="70" value="1..*" style="text;html=1;align=center;verticalAlign=middle;resizable=0;points=[];autosize=1;strokeColor=none;fillColor=none;fontSize=16;fontColor=#FFFFFF;" vertex="1" parent="1">
                    <mxGeometry x="430" y="50" width="50" height="30" as="geometry"/>
                </mxCell>
                <mxCell id="71" value="1..1" style="text;html=1;align=center;verticalAlign=middle;resizable=0;points=[];autosize=1;strokeColor=none;fillColor=none;fontSize=16;fontColor=#FFFFFF;" vertex="1" parent="1">
                    <mxGeometry x="240" y="30" width="50" height="30" as="geometry"/>
                </mxCell>
                <mxCell id="74" style="edgeStyle=none;html=1;strokeWidth=1;fontSize=16;fontColor=#FFFFFF;endArrow=diamondThin;endFill=1;endSize=20;" edge="1" parent="1" source="26">
                    <mxGeometry relative="1" as="geometry">
                        <mxPoint x="670" y="270" as="targetPoint"/>
                    </mxGeometry>
                </mxCell>
                <mxCell id="75" value="1..*" style="text;html=1;align=center;verticalAlign=middle;resizable=0;points=[];autosize=1;strokeColor=none;fillColor=none;fontSize=16;fontColor=#FFFFFF;" vertex="1" parent="1">
                    <mxGeometry x="200" y="240" width="50" height="30" as="geometry"/>
                </mxCell>
                <mxCell id="77" value="*" style="text;html=1;align=center;verticalAlign=middle;resizable=0;points=[];autosize=1;strokeColor=none;fillColor=none;fontSize=16;fontColor=#FFFFFF;" vertex="1" parent="1">
                    <mxGeometry x="610" y="200" width="30" height="30" as="geometry"/>
                </mxCell>
                <mxCell id="78" style="edgeStyle=none;html=1;exitX=1;exitY=1;exitDx=0;exitDy=0;strokeWidth=1;fontSize=16;fontColor=#FFFFFF;endArrow=diamondThin;endFill=1;endSize=20;" edge="1" parent="1" source="2">
                    <mxGeometry relative="1" as="geometry">
                        <mxPoint x="180" y="270" as="targetPoint"/>
                    </mxGeometry>
                </mxCell>
                <mxCell id="79" value="1..*" style="text;html=1;align=center;verticalAlign=middle;resizable=0;points=[];autosize=1;strokeColor=none;fillColor=none;fontSize=16;fontColor=#FFFFFF;" vertex="1" parent="1">
                    <mxGeometry x="680" y="250" width="50" height="30" as="geometry"/>
                </mxCell>
                <mxCell id="80" value="*" style="text;html=1;align=center;verticalAlign=middle;resizable=0;points=[];autosize=1;strokeColor=none;fillColor=none;fontSize=16;fontColor=#FFFFFF;" vertex="1" parent="1">
                    <mxGeometry x="230" y="160" width="30" height="30" as="geometry"/>
                </mxCell>
            </root>
        </mxGraphModel>
    </diagram>
</mxfile>